# xmcd
#
# Track frame offsets:
#       150
#       15205
#       35075
#       36887
#       45905
#       61237
#       81200
#       101170
#       122665
#       140820
#       157037
#       165435
#
# Disc length: 2655 seconds
#
# Revision: 1
# Processed by: cddbd v1.4PL0 Copyright (c) Steve Scherf et al.
# Submitted via: MusiCat 1.1
#
DISCID=950a5d0c
DTITLE=Hotel X - Ladders
DYEAR=1900
DGENRE=
TTITLE0=snack time
TTITLE1=sinaloa
TTITLE2=ask you
TTITLE3=tin can house
TTITLE4=morning song
TTITLE5=right of passage
TTITLE6=black man's cry
TTITLE7=just suppose
TTITLE8=abundance
TTITLE9=axis
TTITLE10=one way street
TTITLE11=message from the nile
EXTD=0\n\n\n
EXTT0=
EXTT1=
EXTT2=
EXTT3=
EXTT4=
EXTT5=
EXTT6=
EXTT7=
EXTT8=
EXTT9=
EXTT10=
EXTT11=
PLAYORDER=
